<svg
  fill="currentColor"
  viewBox="0 0 24 24"
  xmlns="http://www.w3.org/2000/svg"
>
  <path
    d="M22.46 6c-.77.35-1.6.58-2.46.69.88-.53 1.56-1.37 1.88-2.37-.83.5-1.75.85-2.72 1.05C18.37 4.5 17.26 4 16 4c-2.35 0-4.27 1.92-4.27 4.29 0 .34.04.67.11.98C8.28 9.09 5.11 7.36 3.05 4.7c-.36.62-.56 1.35-.56 2.13 0 1.49.75 2.81 1.88 3.59-.69-.02-1.34-.21-1.91-.53v.03c0 2.08 1.48 3.82 3.44 4.21-.36.1-.74.15-1.13.15-.28 0-.55-.03-.81-.08.55 1.71 2.13 2.95 4.01 2.98-1.48 1.16-3.35 1.85-5.38 1.85-.35 0-.69-.02-1.03-.06C2.92 20.04 5.05 20.6 7.3 20.6c8.75 0 13.54-7.25 13.54-13.54 0-.2-.01-.4-.02-.6.93-.67 1.73-1.5 2.37-2.44z"
  />
</svg>